{"title":"The Dark Knight - AVM","uid":5045279,"size":425444470,"categoryP":"video","categoryS":"handheld","magnet":"?xt=urn:btih:c2d946ac4f006404aed27c239f2e6c1535f877a0&amp;dn=The+Dark+Knight+-+AVM&amp;tr=udp%3A%2F%2Ftracker.openbittorrent.com%3A80&amp;tr=udp%3A%2F%2Fopen.demonii.com%3A1337&amp;tr=udp%3A%2F%2Ftracker.coppersurfer.tk%3A6969&amp;tr=udp%3A%2F%2Fexodus.desync.com%3A6969","seeders":0,"leechers":2,"uploader":"AVIDM","files":1,"time":1249594335,"description":"AVIDMobile - http://www.avidmobile.com.ar (Mobile media)\n\nVideo\nID                               : 1\nFormat                           : MPEG-4 Visual\nFormat profile                   : Advanced Simple@L5\nFormat settings, BVOP            : Yes\nFormat settings, QPel            : No\nFormat settings, GMC             : No warppoints\nFormat settings, Matrix          : Default (H.263)\nCodec ID                         : 20\nDuration                         : 2h 26mn\nBit rate mode                    : Variable\nBit rate                         : 322 Kbps\nMaximum bit rate                 : 1 188 Kbps\nWidth                            : 320 pixels\nHeight                           : 240 pixels\nDisplay aspect ratio             : 4/3\nFrame rate mode                  : Variable\nFrame rate                       : 23.976 fps\nMinimum frame rate               : 23.974 fps\nMaximum frame rate               : 23.981 fps\nResolution                       : 24 bits\nColorimetry                      : 4:2:0\nScan type                        : Progressive\nBits/(Pixel*Frame)               : 0.175\nStream size                      : 337 MiB (83%)\n\nAudio\nID                               : 2\nFormat                           : AAC\nFormat/Info                      : Advanced Audio Codec\nFormat version                   : Version 4\nFormat profile                   : LC\nFormat settings, SBR             : No\nCodec ID                         : 40\nDuration                         : 2h 26mn\nBit rate mode                    : Variable\nBit rate                         : 62.7 Kbps\nMaximum bit rate                 : 151 Kbps\nChannel(s)                       : 2 channels\nChannel positions                : L R\nSampling rate                    : 22.05 KHz\nResolution                       : 16 bits\nStream size                      : 65.6 MiB (16%)","torrent":{"xt":"urn:btih:c2d946ac4f006404aed27c239f2e6c1535f877a0","amp;dn":"The+Dark+Knight+-+AVM","amp;tr":["udp%3A%2F%2Ftracker.openbittorrent.com%3A80","udp%3A%2F%2Fopen.demonii.com%3A1337","udp%3A%2F%2Ftracker.coppersurfer.tk%3A6969","udp%3A%2F%2Fexodus.desync.com%3A6969"],"infoHash":"c2d946ac4f006404aed27c239f2e6c1535f877a0","infoHashBuffer":{"type":"Buffer","data":[194,217,70,172,79,0,100,4,174,210,124,35,159,46,108,21,53,248,119,160]},"announce":[],"urlList":[]}}